<svg width="30" height="24" viewBox="0 0 30 24" fill="none" xmlns="http://www.w3.org/2000/svg">
<path d="M29.4581 4.04821L26.8259 1.416C26.4649 1.05481 26.026 0.874146 25.51 0.874146C24.9936 0.874146 24.5546 1.05481 24.1937 1.416L11.4968 14.1321L5.80642 8.4224C5.44509 8.06107 5.00641 7.88061 4.49045 7.88061C3.97414 7.88061 3.53547 8.06107 3.17414 8.4224L0.541926 11.0547C0.180597 11.4159 0 11.8548 0 12.371C0 12.8868 0.180597 13.326 0.541926 13.6872L7.54825 20.6934L10.1807 23.3256C10.5418 23.6871 10.9806 23.8675 11.4968 23.8675C12.0127 23.8675 12.4515 23.6866 12.8129 23.3256L15.4452 20.6934L29.4581 6.68063C29.8191 6.3193 30 5.88055 30 5.36432C30.0003 4.84836 29.8191 4.40954 29.4581 4.04821Z" fill="#F75A58"/>
</svg>
