<svg width="24" height="25" viewBox="0 0 24 25" fill="none" xmlns="http://www.w3.org/2000/svg">
<g clip-path="url(#clip0)">
<path d="M3.51587 24.96H11.344V16.4287H8.53149V13.6162H11.344V10.1006C11.344 8.16205 12.9211 6.58496 14.8596 6.58496H18.3752V9.39746H15.5627C14.7873 9.39746 14.1565 10.0283 14.1565 10.8037V13.6162H18.2484L17.7796 16.4287H14.1565V24.96H20.4846C22.4232 24.96 24.0002 23.3829 24.0002 21.4443V4.47559C24.0002 2.53705 22.4232 0.959961 20.4846 0.959961H3.51587C1.57733 0.959961 0.000244141 2.53705 0.000244141 4.47559V21.4443C0.000244141 23.3829 1.57733 24.96 3.51587 24.96ZM1.40649 4.47559C1.40649 3.3125 2.35278 2.36621 3.51587 2.36621H20.4846C21.6477 2.36621 22.594 3.3125 22.594 4.47559V21.4443C22.594 22.6074 21.6477 23.5537 20.4846 23.5537H15.5627V17.835H18.9709L19.9084 12.21H15.5627V10.8037H19.7815V5.17871H14.8596C12.1456 5.17871 9.93774 7.3866 9.93774 10.1006V12.21H7.12524V17.835H9.93774V23.5537H3.51587C2.35278 23.5537 1.40649 22.6074 1.40649 21.4443V4.47559Z" fill="#F75A58"/>
</g>
<defs>
<clipPath id="clip0">
<rect width="24" height="24" fill="white" transform="translate(0.000244141 0.959961)"/>
</clipPath>
</defs>
</svg>
