<svg width="31" height="70" viewBox="0 0 31 70" fill="none" xmlns="http://www.w3.org/2000/svg">
<path d="M0.912802 68.2502C0.54783 67.885 0.351668 67.3597 0.426377 66.8086C0.553342 65.8716 1.41555 65.2149 2.35187 65.3422L11.5492 66.591C12.4858 66.7183 13.1418 67.5809 13.0146 68.5178C12.8877 69.4548 12.0255 70.1115 11.0892 69.9842L1.89177 68.7354C1.50619 68.6829 1.16816 68.5058 0.912802 68.2502Z" fill="#F75A58"/>
<path d="M18.4724 2.92382C18.1074 2.5586 17.9112 2.03325 17.9859 1.48215C18.1129 0.545214 18.9751 -0.111481 19.9114 0.0157727L29.1088 1.26462C30.0454 1.39187 30.7014 2.25446 30.5743 3.1914C30.4473 4.12834 29.5851 4.78503 28.6488 4.65778L19.4513 3.40893C19.0658 3.35644 18.7277 3.17935 18.4724 2.92382Z" fill="#F75A58"/>
<path d="M1.50293 8.25092C1.50293 7.36259 2.22267 6.64258 3.1102 6.64258H7.10101C9.25125 6.64258 10.8948 7.24269 12.032 8.4419C13.1686 9.64172 13.7375 11.3171 13.7375 13.4687V25.823C13.7375 28.2966 13.1378 30.1206 11.9391 31.2951C10.7401 32.4702 9.0161 33.0574 6.76727 33.0574H3.47762C2.38699 33.0574 1.50293 32.1728 1.50293 31.0814V8.25092ZM5.28431 29.4958H7.02671C8.08917 29.4958 8.84341 29.2302 9.2884 28.6981C9.73318 28.1664 9.95568 27.3316 9.95568 26.1939V13.4687C9.95568 12.4299 9.74543 11.6265 9.32534 11.0572C8.90464 10.4886 8.13898 10.204 7.02671 10.204H5.28431V29.4958Z" fill="#F75A58"/>
<path d="M29.5003 27.1214C29.5003 27.9875 29.3392 28.791 29.0183 29.5329C28.6966 30.275 28.2582 30.9241 27.7019 31.4805C27.1461 32.0369 26.497 32.4763 25.7556 32.7976C25.014 33.1187 24.2228 33.2798 23.3831 33.2798C22.5423 33.2798 21.7517 33.1187 21.0101 32.7976C20.2686 32.4763 19.6199 32.0369 19.0638 31.4805C18.5076 30.9239 18.0687 30.2748 17.7474 29.5329C17.4259 28.7908 17.2657 27.9875 17.2657 27.1214V8.53439C17.2657 7.4894 18.1122 6.64233 19.1565 6.64233C20.2008 6.64233 21.0473 7.4894 21.0473 8.53439V26.7505C21.0473 27.6907 21.2698 28.3827 21.7146 28.828C22.1596 29.2733 22.7156 29.4957 23.3831 29.4957C24.0504 29.4957 24.6064 29.2731 25.0514 28.828C25.4962 28.3827 25.7187 27.6907 25.7187 26.7505V8.5346C25.7187 7.4896 26.5652 6.64254 27.6095 6.64254C28.6538 6.64254 29.5003 7.4896 29.5003 8.5346V27.1214Z" fill="#F75A58"/>
<path d="M13.7378 57.2315C13.7378 58.0976 13.5768 58.9012 13.2559 59.643C12.9342 60.3851 12.4957 61.0342 11.9395 61.5906C11.3837 62.147 10.7346 62.5864 9.99319 62.9077C9.25161 63.2288 8.46043 63.39 7.62067 63.39C6.77989 63.39 5.98932 63.2288 5.24774 62.9077C4.50615 62.5864 3.85745 62.147 3.30142 61.5906C2.74518 61.034 2.30631 60.3849 1.98502 59.643C1.66353 58.901 1.5033 58.0976 1.5033 57.2315V38.6445C1.5033 37.5995 2.3498 36.7524 3.39409 36.7524C4.43839 36.7524 5.28489 37.5995 5.28489 38.6445V56.8606C5.28489 57.8008 5.50738 58.4928 5.95216 58.9381C6.39715 59.3834 6.95319 59.6059 7.62067 59.6059C8.28795 59.6059 8.84398 59.3832 9.28897 58.9381C9.73376 58.4928 9.95625 57.8008 9.95625 56.8606V38.6447C9.95625 37.5997 10.8027 36.7526 11.847 36.7526C12.8913 36.7526 13.7378 37.5997 13.7378 38.6447V57.2315Z" fill="#F75A58"/>
<path d="M16.8264 42.9855C16.8264 41.9223 17.0117 40.9821 17.3826 40.1659C17.7533 39.3496 18.2411 38.676 18.847 38.1439C19.4524 37.6124 20.1319 37.2106 20.886 36.9381C21.6398 36.6663 22.3997 36.53 23.1662 36.53C23.9319 36.53 24.6921 36.6663 25.4463 36.9381C26.1997 37.2106 26.8792 37.6124 27.4853 38.1439C28.0907 38.676 28.579 39.3496 28.9497 40.1659C29.3206 40.9821 29.5059 41.9223 29.5059 42.9855V56.9348C29.5059 58.0235 29.3206 58.9694 28.9497 59.7729C28.579 60.5769 28.0907 61.2446 27.4853 61.7763C26.8794 62.3086 26.1997 62.7102 25.4463 62.9823C24.6921 63.2539 23.9319 63.3902 23.1662 63.3902C22.3997 63.3902 21.6396 63.2539 20.886 62.9823C20.1319 62.7104 19.4524 62.3086 18.847 61.7763C18.2411 61.2448 17.7533 60.5769 17.3826 59.7729C17.0117 58.9696 16.8264 58.0235 16.8264 56.9348V42.9855ZM20.608 56.935C20.608 57.8503 20.8611 58.5245 21.3677 58.9569C21.8741 59.39 22.4736 59.6063 23.166 59.6063C23.8576 59.6063 24.4571 59.39 24.9642 58.9569C25.4704 58.5245 25.7239 57.8503 25.7239 56.935V42.9857C25.7239 42.0708 25.4702 41.3967 24.9642 40.9637C24.4571 40.5313 23.8576 40.3146 23.166 40.3146C22.4736 40.3146 21.8741 40.5313 21.3677 40.9637C20.8609 41.3967 20.608 42.0708 20.608 42.9857V56.935Z" fill="#F75A58"/>
</svg>
