<svg width="32" height="70" viewBox="0 0 32 70" fill="none" xmlns="http://www.w3.org/2000/svg">
<path d="M1.42186 68.2502C1.05711 67.885 0.861074 67.3597 0.935737 66.8086C1.06262 65.8716 1.9243 65.2149 2.86003 65.3422L12.0517 66.591C12.9877 66.7183 13.6433 67.5809 13.5162 68.5178C13.3893 69.4548 12.5276 70.1115 11.5919 69.9842L2.40023 68.7354C2.01488 68.6829 1.67706 68.5058 1.42186 68.2502Z" fill="#F75A58"/>
<path d="M18.9706 2.92382C18.6058 2.5586 18.4098 2.03325 18.4844 1.48215C18.6113 0.545214 19.473 -0.111481 20.4088 0.0157727L29.6005 1.26462C30.5364 1.39187 31.192 2.25446 31.065 3.1914C30.9381 4.12834 30.0764 4.78503 29.1406 4.65778L19.9489 3.40893C19.5636 3.35644 19.2258 3.17935 18.9706 2.92382Z" fill="#F75A58"/>
<path d="M2.01161 8.25092C2.01161 7.36259 2.7309 6.64258 3.61788 6.64258H7.60622C9.75513 6.64258 11.3977 7.24269 12.5342 8.4419C13.67 9.64172 14.2386 11.3171 14.2386 13.4687V25.823C14.2386 28.2966 13.6392 30.1206 12.4414 31.2951C11.2431 32.4702 9.52012 33.0574 7.27269 33.0574H3.98508C2.89512 33.0574 2.01161 32.1728 2.01161 31.0814V8.25092ZM5.79065 29.4958H7.53197C8.59377 29.4958 9.34754 29.2302 9.79225 28.6981C10.2368 28.1664 10.4591 27.3316 10.4591 26.1939V13.4687C10.4591 12.4299 10.249 11.6265 9.82918 11.0572C9.40874 10.4886 8.64355 10.204 7.53197 10.204H5.79065V29.4958Z" fill="#F75A58"/>
<path d="M29.9916 27.1214C29.9916 27.9875 29.8307 28.791 29.51 29.5329C29.1885 30.275 28.7503 30.9241 28.1944 31.4805C27.6389 32.0369 26.9902 32.4763 26.2493 32.7976C25.5082 33.1187 24.7175 33.2798 23.8782 33.2798C23.038 33.2798 22.2479 33.1187 21.5067 32.7976C20.7656 32.4763 20.1173 32.0369 19.5616 31.4805C19.0057 30.9239 18.5671 30.2748 18.246 29.5329C17.9248 28.7908 17.7646 27.9875 17.7646 27.1214V8.53439C17.7646 7.4894 18.6106 6.64233 19.6542 6.64233C20.6979 6.64233 21.5439 7.4894 21.5439 8.53439V26.7505C21.5439 27.6907 21.7662 28.3827 22.2107 28.828C22.6555 29.2733 23.2111 29.4957 23.8782 29.4957C24.5451 29.4957 25.1008 29.2731 25.5455 28.828C25.99 28.3827 26.2124 27.6907 26.2124 26.7505V8.5346C26.2124 7.4896 27.0583 6.64254 28.102 6.64254C29.1456 6.64254 29.9916 7.4896 29.9916 8.5346V27.1214Z" fill="#F75A58"/>
<path d="M14.2389 57.2315C14.2389 58.0976 14.078 58.9012 13.7573 59.643C13.4358 60.3851 12.9976 61.0342 12.4417 61.5906C11.8862 62.147 11.2375 62.5864 10.4966 62.9077C9.75549 63.2288 8.9648 63.39 8.12555 63.39C7.28529 63.39 6.49521 63.2288 5.75409 62.9077C5.01297 62.5864 4.36466 62.147 3.80897 61.5906C3.25308 61.034 2.81449 60.3849 2.4934 59.643C2.1721 58.901 2.01197 58.0976 2.01197 57.2315V38.6445C2.01197 37.5995 2.85794 36.7524 3.90159 36.7524C4.94524 36.7524 5.79122 37.5995 5.79122 38.6445V56.8606C5.79122 57.8008 6.01357 58.4928 6.45808 58.9381C6.90279 59.3834 7.45848 59.6059 8.12555 59.6059C8.79242 59.6059 9.34811 59.3832 9.79282 58.9381C10.2373 58.4928 10.4597 57.8008 10.4597 56.8606V38.6447C10.4597 37.5997 11.3057 36.7526 12.3493 36.7526C13.393 36.7526 14.2389 37.5997 14.2389 38.6447V57.2315Z" fill="#F75A58"/>
<path d="M17.3255 42.9855C17.3255 41.9223 17.5108 40.9821 17.8814 40.1659C18.2519 39.3496 18.7394 38.676 19.3449 38.1439C19.95 37.6124 20.6291 37.2106 21.3826 36.9381C22.136 36.6663 22.8955 36.53 23.6615 36.53C24.4267 36.53 25.1864 36.6663 25.9402 36.9381C26.6931 37.2106 27.3722 37.6124 27.9779 38.1439C28.5829 38.676 29.0709 39.3496 29.4414 40.1659C29.812 40.9821 29.9973 41.9223 29.9973 42.9855V56.9348C29.9973 58.0235 29.812 58.9694 29.4414 59.7729C29.0709 60.5769 28.5829 61.2446 27.9779 61.7763C27.3724 62.3086 26.6931 62.7102 25.9402 62.9823C25.1864 63.2539 24.4267 63.3902 23.6615 63.3902C22.8955 63.3902 22.1358 63.2539 21.3826 62.9823C20.6291 62.7104 19.95 62.3086 19.3449 61.7763C18.7394 61.2448 18.2519 60.5769 17.8814 59.7729C17.5108 58.9696 17.3255 58.0235 17.3255 56.9348V42.9855ZM21.1048 56.935C21.1048 57.8503 21.3578 58.5245 21.8641 58.9569C22.3702 59.39 22.9693 59.6063 23.6613 59.6063C24.3524 59.6063 24.9516 59.39 25.4583 58.9569C25.9642 58.5245 26.2176 57.8503 26.2176 56.935V42.9857C26.2176 42.0708 25.964 41.3967 25.4583 40.9637C24.9516 40.5313 24.3524 40.3146 23.6613 40.3146C22.9693 40.3146 22.3702 40.5313 21.8641 40.9637C21.3576 41.3967 21.1048 42.0708 21.1048 42.9857V56.935Z" fill="#F75A58"/>
</svg>
