<svg width="512" height="926" viewBox="0 0 512 926" fill="none" xmlns="http://www.w3.org/2000/svg">
<path d="M111.85 14.8741C112.65 9.6767 115.854 4.88975 120.968 2.16096C129.667 -2.47566 140.599 0.594222 145.384 9.0234L192.397 91.8179C197.182 100.247 194.014 110.838 185.314 115.475C176.614 120.112 165.683 117.042 160.898 108.613L113.885 25.8182C111.91 22.3494 111.29 18.5106 111.85 14.8741Z" fill="#F6F6F6"/>
<path d="M298.349 336.01C303.611 334.703 309.417 335.703 314.018 339.202C321.835 345.157 323.186 356.09 317.039 363.627L256.628 437.641C250.476 445.175 239.155 446.456 231.334 440.506C223.517 434.551 222.166 423.618 228.313 416.081L288.729 342.07C291.261 338.967 294.67 336.919 298.349 336.01Z" fill="#F6F6F6"/>
<path d="M200.67 548.2C196.834 544.482 194.775 539.14 195.557 533.532C196.893 523.999 205.951 517.322 215.79 518.611L312.435 531.318C322.275 532.613 329.166 541.389 327.836 550.923C326.499 560.456 317.441 567.134 307.602 565.844L210.957 553.137C206.906 552.599 203.356 550.796 200.67 548.2Z" fill="#F6F6F6"/>
<path d="M225.836 213.946C220.43 213.507 215.299 210.708 212.16 205.939C206.832 197.822 209.302 187.057 217.679 181.888L299.968 131.169C308.346 126.006 319.456 128.4 324.79 136.517C330.125 144.634 327.648 155.398 319.271 160.567L236.982 211.286C233.527 213.408 229.613 214.258 225.836 213.946Z" fill="#F6F6F6"/>
<path d="M75.7939 300.421C75.1951 295.212 77.04 289.804 81.2765 285.906C88.4821 279.286 99.8897 279.548 106.754 286.499L174.17 354.746C181.033 361.697 180.757 372.691 173.546 379.312C166.334 385.933 154.932 385.671 148.069 378.719L80.6529 310.478C77.8246 307.617 76.2104 304.069 75.7939 300.421Z" fill="#F6F6F6"/>
<path d="M92.1779 151.815C97.5958 151.59 103.055 153.729 106.791 158.082C113.139 165.476 112.095 176.461 104.464 182.612L29.4724 243.033C21.8349 249.184 10.5038 248.173 4.15512 240.778C-2.1936 233.384 -1.1494 222.399 6.48219 216.248L81.4734 155.827C84.612 153.295 88.383 151.977 92.1779 151.815Z" fill="#F6F6F6"/>
<path d="M60.7258 460.398C65.5768 457.207 71.8599 456.172 77.8446 458.121C88.024 461.433 93.5016 472.117 90.0826 481.98L56.4893 578.858C53.0644 588.721 42.0436 594.028 31.8642 590.716C21.6848 587.403 16.2072 576.719 19.6262 566.856L53.2195 469.978C54.6277 465.92 57.3247 462.63 60.7258 460.398Z" fill="#F6F6F6"/>
</svg>
