<svg width="74" height="72" viewBox="0 0 74 72" fill="none" xmlns="http://www.w3.org/2000/svg">
<path d="M31.2004 63.2855C47.1899 63.2855 60.1567 50.347 60.1567 34.3807C60.1567 18.4143 47.1899 5.47583 31.2004 5.47583C15.211 5.47583 2.24414 18.4143 2.24414 34.3807C2.24414 50.347 15.211 63.2855 31.2004 63.2855Z" stroke="#DB583F" stroke-width="3"/>
<path d="M72.4003 35.8754C72.4003 42.0469 67.3301 47.0813 61.0366 47.0813C54.7431 47.0813 49.6729 42.0469 49.6729 35.8754C49.6729 29.704 54.7431 24.6696 61.0366 24.6696C67.3301 24.6696 72.4003 29.704 72.4003 35.8754Z" fill="white" stroke="#DB583F" stroke-width="3"/>
<path d="M24.2275 12.7059C24.2275 18.8773 19.1573 23.9118 12.8637 23.9118C6.5702 23.9118 1.5 18.8773 1.5 12.7059C1.5 6.53445 6.5702 1.5 12.8637 1.5C19.1573 1.5 24.2275 6.53445 24.2275 12.7059Z" fill="white" stroke="#DB583F" stroke-width="3"/>
<path d="M35.7089 59.2941C35.7089 65.4656 30.6387 70.5 24.3452 70.5C18.0516 70.5 12.9814 65.4656 12.9814 59.2941C12.9814 53.1227 18.0516 48.0883 24.3452 48.0883C30.6387 48.0883 35.7089 53.1227 35.7089 59.2941Z" fill="white" stroke="#DB583F" stroke-width="3"/>
</svg>
