<svg width="30" height="25" viewBox="0 0 30 25" fill="none" xmlns="http://www.w3.org/2000/svg">
<g clip-path="url(#clip0)">
<path d="M30.0002 4.16517C28.1131 4.25019 28.1543 4.24325 27.941 4.2607L29.0586 1.14093C29.0586 1.14093 25.57 2.39533 24.6856 2.61972C22.3629 0.579169 18.9105 0.48901 16.4422 1.97182C14.4209 3.1864 13.336 5.27214 13.6979 7.71001C9.76411 7.17644 6.44968 5.3538 3.83287 2.28123L3.00523 1.30961L2.3868 2.41971C1.60516 3.82244 1.34561 5.42628 1.65575 6.93572C1.783 7.55498 1.9993 8.1456 2.2989 8.69863L1.58891 8.42972L1.50468 9.58926C1.41931 10.7671 1.82054 12.1421 2.57814 13.267C2.79146 13.5838 3.06612 13.9317 3.41425 14.2748L3.04735 14.2198L3.49504 15.5485C4.0835 17.2942 5.30573 18.6448 6.89188 19.3956C5.30779 20.0526 4.02811 20.4719 1.92468 21.1482L0.000244141 21.7666L1.77774 22.7165C2.45546 23.0787 4.85025 24.2883 7.21643 24.6512C12.4761 25.4575 18.398 24.8009 22.3847 21.2914C25.7426 18.3354 26.8444 14.1306 26.6155 9.75481C26.581 9.09238 26.7666 8.46015 27.1383 7.9749C27.8829 7.00328 29.9957 4.17166 30.0002 4.16517ZM25.7327 6.94579C25.1154 7.7514 24.8062 8.78029 24.8616 9.84251C25.0926 14.2563 23.8639 17.6792 21.2096 20.0157C18.1089 22.7453 13.1076 23.8167 7.48857 22.9552C6.47096 22.7992 5.41925 22.45 4.54881 22.1012C6.31235 21.5082 7.67419 20.9795 9.87352 19.962L12.9437 18.5416L9.554 18.3295C7.93031 18.228 6.57831 17.4588 5.74724 16.21C6.18852 16.185 6.61401 16.1152 7.03767 15.9997L10.2706 15.1196L7.01067 14.3393C5.42657 13.9601 4.52364 13.0337 4.04504 12.3231C3.73079 11.8562 3.52548 11.3779 3.40234 10.9369C3.72919 11.0226 4.11028 11.0837 4.72482 11.1432L7.74217 11.4349L5.3515 9.61208C3.62894 8.29885 2.93863 6.32586 3.44469 4.42916C8.82066 9.87943 15.1328 9.4698 15.7681 9.61387C15.6283 8.28609 15.6246 8.28296 15.588 8.15656C14.7743 5.34507 16.5576 3.91752 17.3618 3.43428C19.0418 2.42508 21.7085 2.27295 23.5556 3.93564C23.9546 4.29448 24.494 4.43565 24.9989 4.31305C25.4521 4.20298 25.8241 4.08642 26.1882 3.95958L25.4302 6.07552L26.3979 6.07619C26.2152 6.31557 25.9962 6.60215 25.7327 6.94579Z" fill="#F75A58"/>
</g>
<defs>
<clipPath id="clip0">
<rect width="30" height="24" fill="white" transform="translate(0.000244141 0.959961)"/>
</clipPath>
</defs>
</svg>
